<svg xmlns="http://www.w3.org/2000/svg" width="225" height="225" viewBox="0 0 225 225" version="1.1"><path d="M 43.212 30.570 L 35 37.141 35 111.513 L 35 185.885 40.535 190.663 C 43.579 193.291, 47.404 196.286, 49.035 197.319 L 52 199.196 52 111.598 C 52 63.419, 51.870 24, 51.712 24 C 51.554 24, 47.729 26.957, 43.212 30.570 M 168.500 80.709 C 155.850 98.669, 145.557 113.926, 145.627 114.612 C 145.789 116.200, 189.246 177.906, 190.240 177.960 C 191.286 178.017, 197.945 168.767, 197.975 167.216 C 197.989 166.510, 189.856 154.462, 179.902 140.444 C 169.948 126.425, 162.016 114.403, 162.276 113.727 C 162.535 113.052, 171.168 100.612, 181.458 86.083 C 198.648 61.814, 200.079 59.469, 199.062 57.237 C 197.699 54.245, 192.992 47.990, 192.131 48.027 C 191.784 48.042, 181.150 62.749, 168.500 80.709" stroke="none" fill="#f02533" fill-rule="evenodd"/><path d="M 91.360 8.569 C 84.052 9.801, 80.453 10.809, 71.250 14.206 L 66 16.144 66 111.607 L 66 207.071 70.669 209.073 C 75.643 211.205, 87.740 214.445, 94.740 215.521 L 98.979 216.172 99.240 172.244 L 99.500 128.315 126.958 167.158 C 142.060 188.521, 154.597 206, 154.818 206 C 157.613 206, 179.619 191.157, 180.595 188.613 C 180.877 187.877, 169.574 170.980, 155.476 151.063 C 141.378 131.146, 130.057 114.322, 130.318 113.675 C 130.580 113.029, 142.739 95.640, 157.339 75.033 C 179.089 44.334, 183.669 37.302, 182.692 36.107 C 180.788 33.777, 166.002 23.042, 161.616 20.804 C 157.667 18.790, 157.590 18.788, 156.056 20.689 C 155.200 21.749, 142.125 40.119, 127 61.512 L 99.500 100.406 99 53.886 L 98.500 7.366 91.360 8.569 M 22.100 54.092 C 15.353 64.333, 11.212 73.590, 7.816 86.022 C 5.789 93.444, 5.508 96.680, 5.567 112 C 5.638 130.690, 6.767 137.193, 12.333 150.972 C 15.333 158.401, 22.141 170.348, 26.025 175 L 28.946 178.500 28.973 111.750 C 28.988 75.037, 28.795 45, 28.545 45 C 28.294 45, 25.394 49.092, 22.100 54.092 M 191.713 93.623 L 177.071 114.291 178.877 116.895 C 179.870 118.328, 186.243 127.351, 193.040 136.947 L 205.397 154.393 206.707 151.184 C 207.427 149.419, 209.192 144.043, 210.630 139.237 C 213.852 128.467, 215.043 106.090, 213.008 94.586 C 211.650 86.913, 208.259 74.973, 207.084 73.728 C 206.684 73.303, 199.767 82.256, 191.713 93.623" stroke="none" fill="#24337f" fill-rule="evenodd"/></svg>